# xmcd CD database file
#
# Track frame offsets:
#	150
#	22954
#	45863
#	71061
#	96664
#	123120
#	144946
#	168515
#	192412
#	213755
#	235533
#	257059
#	275987
#	297729
#	318988
#
# Disc length: 4517 seconds
#
# Revision: 0
# Processed by: cddbd v1.5.2PL0 Copyright (c) Steve Scherf et al.
# Submitted via: Feurio! 1.68 - http://www.feurio.com
#
DISCID=de11a30f
DTITLE=Uri Orlev - Lauf, Junge, lauf - CD 01
DYEAR=1900
DGENRE=Hörbuch
TTITLE0=Lauf, Junge, lauf - CD 1 - 01
TTITLE1=Lauf, Junge, lauf - CD 1 - 02
TTITLE2=Lauf, Junge, lauf - CD 1 - 03
TTITLE3=Lauf, Junge, lauf - CD 1 - 04
TTITLE4=Lauf, Junge, lauf - CD 1 - 05
TTITLE5=Lauf, Junge, lauf - CD 1 - 06
TTITLE6=Lauf, Junge, lauf - CD 1 - 07
TTITLE7=Lauf, Junge, lauf - CD 1 - 08
TTITLE8=Lauf, Junge, lauf - CD 1 - 09
TTITLE9=Lauf, Junge, lauf - CD 1 - 10
TTITLE10=Lauf, Junge, lauf - CD 1 - 11
TTITLE11=Lauf, Junge, lauf - CD 1 - 12
TTITLE12=Lauf, Junge, lauf - CD 1 - 13
TTITLE13=Lauf, Junge, lauf - CD 1 - 14
TTITLE14=Lauf, Junge, lauf - CD 1 - 15
EXTD=Gelesen von Ulrich Pleitgen
EXTT0=
EXTT1=
EXTT2=
EXTT3=
EXTT4=
EXTT5=
EXTT6=
EXTT7=
EXTT8=
EXTT9=
EXTT10=
EXTT11=
EXTT12=
EXTT13=
EXTT14=
PLAYORDER=
